<svg width="22" height="21" viewBox="0 0 22 21" fill="none" xmlns="http://www.w3.org/2000/svg">
<path id="Path 5503" d="M18.0593 0.520569H3.1821C1.42873 0.520569 -0.00585938 1.95514 -0.00585938 3.7085V14.3351C-0.00585938 16.0885 1.42873 17.523 3.1821 17.523V19.6484C3.1821 20.0309 3.38826 20.3848 3.72087 20.5729C3.88345 20.6653 4.06413 20.7111 4.24477 20.7111C4.43393 20.7111 4.62308 20.6611 4.79204 20.5591L9.55804 17.523H18.0593C19.8127 17.523 21.2473 16.0885 21.2473 14.3351V3.7085C21.2473 1.95514 19.8127 0.520569 18.0593 0.520569ZM11.6834 12.2098H4.24477C3.66029 12.2098 3.1821 11.7316 3.1821 11.1471C3.1821 10.5627 3.66029 10.0845 4.24477 10.0845H11.6834C12.2678 10.0845 12.746 10.5627 12.746 11.1471C12.746 11.7316 12.2678 12.2098 11.6834 12.2098ZM16.9967 7.95917H4.24477C3.66029 7.95917 3.1821 7.48096 3.1821 6.89648C3.1821 6.31201 3.66029 5.8338 4.24477 5.8338H16.9967C17.5811 5.8338 18.0593 6.31201 18.0593 6.89648C18.0593 7.48096 17.5811 7.95917 16.9967 7.95917Z" fill="#B8B8B8"/>
</svg>
