<svg width="200" height="68" viewBox="0 0 200 68" fill="none" xmlns="http://www.w3.org/2000/svg">
<path d="M21.5461 8.87745H24.7166V26.2127C24.7166 28.0024 24.2947 29.6005 23.451 31.0067C22.6157 32.4044 21.4353 33.5081 19.9098 34.3178C18.3842 35.1189 16.5944 35.5195 14.5404 35.5195C12.4865 35.5195 10.6967 35.1189 9.17112 34.3178C7.64555 33.5081 6.46089 32.4044 5.61714 31.0067C4.78192 29.6005 4.3643 28.0024 4.3643 26.2127V8.87745H7.53476V25.957C7.53476 27.2354 7.81601 28.3732 8.37851 29.3703C8.94101 30.359 9.74214 31.1388 10.7819 31.7098C11.8302 32.2723 13.0831 32.5536 14.5404 32.5536C15.9978 32.5536 17.2507 32.2723 18.299 31.7098C19.3473 31.1388 20.1484 30.359 20.7024 29.3703C21.2649 28.3732 21.5461 27.2354 21.5461 25.957V8.87745ZM44.5479 19.8206L41.8377 20.5877C41.6672 20.136 41.4158 19.697 41.0834 19.2709C40.7595 18.8363 40.3164 18.4783 39.7539 18.197C39.1914 17.9158 38.4712 17.7752 37.5934 17.7752C36.3916 17.7752 35.3902 18.0522 34.5891 18.6061C33.7965 19.1516 33.4002 19.8462 33.4002 20.6899C33.4002 21.4399 33.6729 22.0323 34.2184 22.4669C34.7638 22.9016 35.6161 23.2638 36.7752 23.5536L39.6899 24.2695C41.4456 24.6956 42.7539 25.3476 43.6147 26.2255C44.4755 27.0948 44.9059 28.2155 44.9059 29.5877C44.9059 30.7127 44.582 31.7184 43.9343 32.6047C43.2951 33.4911 42.4002 34.1899 41.2496 34.7013C40.099 35.2127 38.761 35.4684 37.2354 35.4684C35.2326 35.4684 33.5749 35.0337 32.2624 34.1644C30.9499 33.2951 30.1189 32.0252 29.7695 30.3547L32.6331 29.6388C32.9059 30.6956 33.4215 31.4882 34.18 32.0167C34.947 32.5451 35.9485 32.8093 37.1843 32.8093C38.5905 32.8093 39.707 32.511 40.5337 31.9144C41.3689 31.3093 41.7865 30.5848 41.7865 29.7411C41.7865 29.0593 41.5479 28.4882 41.0706 28.028C40.5934 27.5593 39.8604 27.2098 38.8718 26.9797L35.599 26.2127C33.8007 25.7865 32.4797 25.126 31.636 24.2311C30.8007 23.3277 30.3831 22.1985 30.3831 20.8434C30.3831 19.7354 30.6942 18.7553 31.3164 17.903C31.947 17.0507 32.8036 16.3817 33.886 15.8959C34.9769 15.4101 36.2127 15.1672 37.5934 15.1672C39.5365 15.1672 41.0621 15.5934 42.1701 16.4456C43.2865 17.2979 44.0791 18.4229 44.5479 19.8206ZM57.6804 35.4684C55.7883 35.4684 54.1562 35.0507 52.784 34.2155C51.4204 33.3718 50.3679 32.1956 49.6264 30.6871C48.8934 29.1701 48.5269 27.4059 48.5269 25.3945C48.5269 23.3831 48.8934 21.6104 49.6264 20.0763C50.3679 18.5337 51.3991 17.332 52.7201 16.4712C54.0497 15.6019 55.6008 15.1672 57.3735 15.1672C58.3963 15.1672 59.4062 15.3377 60.4034 15.6786C61.4005 16.0195 62.3082 16.5735 63.1264 17.3405C63.9446 18.099 64.5965 19.1047 65.0823 20.3576C65.5681 21.6104 65.811 23.153 65.811 24.9854V26.2638H50.6747V23.6559H62.7429C62.7429 22.5479 62.5213 21.5593 62.0781 20.6899C61.6434 19.8206 61.0213 19.1345 60.2116 18.6317C59.4105 18.1289 58.4644 17.8774 57.3735 17.8774C56.1718 17.8774 55.1321 18.1757 54.2542 18.7723C53.3849 19.3604 52.7159 20.1274 52.2471 21.0735C51.7784 22.0195 51.544 23.0337 51.544 24.1161V25.8547C51.544 27.3377 51.7997 28.5948 52.311 29.626C52.8309 30.6488 53.5511 31.4286 54.4715 31.9655C55.392 32.4939 56.4616 32.7581 57.6804 32.7581C58.473 32.7581 59.1889 32.6473 59.8281 32.4257C60.4758 32.1956 61.034 31.8547 61.5028 31.403C61.9715 30.9428 62.3338 30.3718 62.5894 29.6899L65.5042 30.5081C65.1974 31.4968 64.6818 32.3661 63.9573 33.1161C63.2329 33.8576 62.338 34.4371 61.2727 34.8547C60.2073 35.2638 59.0099 35.4684 57.6804 35.4684ZM94.4346 19.8206L91.7244 20.5877C91.5539 20.136 91.3025 19.697 90.9701 19.2709C90.6463 18.8363 90.2031 18.4783 89.6406 18.197C89.0781 17.9158 88.3579 17.7752 87.4801 17.7752C86.2784 17.7752 85.2769 18.0522 84.4758 18.6061C83.6832 19.1516 83.2869 19.8462 83.2869 20.6899C83.2869 21.4399 83.5596 22.0323 84.1051 22.4669C84.6505 22.9016 85.5028 23.2638 86.6619 23.5536L89.5767 24.2695C91.3323 24.6956 92.6406 25.3476 93.5014 26.2255C94.3622 27.0948 94.7926 28.2155 94.7926 29.5877C94.7926 30.7127 94.4687 31.7184 93.821 32.6047C93.1818 33.4911 92.2869 34.1899 91.1363 34.7013C89.9858 35.2127 88.6477 35.4684 87.1221 35.4684C85.1193 35.4684 83.4616 35.0337 82.1491 34.1644C80.8366 33.2951 80.0056 32.0252 79.6562 30.3547L82.5198 29.6388C82.7926 30.6956 83.3082 31.4882 84.0667 32.0167C84.8338 32.5451 85.8352 32.8093 87.071 32.8093C88.4772 32.8093 89.5937 32.511 90.4204 31.9144C91.2556 31.3093 91.6733 30.5848 91.6733 29.7411C91.6733 29.0593 91.4346 28.4882 90.9573 28.028C90.4801 27.5593 89.7471 27.2098 88.7585 26.9797L85.4858 26.2127C83.6875 25.7865 82.3664 25.126 81.5227 24.2311C80.6875 23.3277 80.2698 22.1985 80.2698 20.8434C80.2698 19.7354 80.5809 18.7553 81.2031 17.903C81.8338 17.0507 82.6903 16.3817 83.7727 15.8959C84.8636 15.4101 86.0994 15.1672 87.4801 15.1672C89.4233 15.1672 90.9488 15.5934 92.0568 16.4456C93.1733 17.2979 93.9659 18.4229 94.4346 19.8206ZM99.3341 35.0593V15.4229H102.249V18.4911H102.505C102.914 17.4428 103.574 16.6289 104.486 16.0493C105.398 15.4613 106.493 15.1672 107.772 15.1672C109.067 15.1672 110.145 15.4613 111.006 16.0493C111.875 16.6289 112.553 17.4428 113.039 18.4911H113.243C113.746 17.4769 114.5 16.6715 115.506 16.0749C116.512 15.4698 117.718 15.1672 119.124 15.1672C120.88 15.1672 122.316 15.7169 123.432 16.8164C124.549 17.9073 125.107 19.6076 125.107 21.9172V35.0593H122.09V21.9172C122.09 20.4684 121.693 19.4328 120.901 18.8107C120.108 18.1885 119.175 17.8774 118.101 17.8774C116.72 17.8774 115.651 18.2951 114.892 19.1303C114.134 19.957 113.755 21.0053 113.755 22.2752V35.0593H110.686V21.6104C110.686 20.4939 110.324 19.5948 109.6 18.913C108.875 18.2226 107.942 17.8774 106.8 17.8774C106.016 17.8774 105.283 18.0863 104.601 18.5039C103.928 18.9215 103.382 19.501 102.965 20.2425C102.556 20.9755 102.351 21.8235 102.351 22.7865V35.0593H99.3341ZM136.402 35.5195C135.157 35.5195 134.028 35.2851 133.014 34.8164C132 34.3391 131.194 33.653 130.598 32.7581C130.001 31.8547 129.703 30.7638 129.703 29.4854C129.703 28.3604 129.924 27.4485 130.367 26.7496C130.811 26.0422 131.403 25.4882 132.144 25.0877C132.886 24.6871 133.704 24.3888 134.599 24.1928C135.502 23.9882 136.41 23.8263 137.322 23.707C138.515 23.5536 139.483 23.4385 140.224 23.3618C140.974 23.2766 141.519 23.136 141.86 22.9399C142.21 22.7439 142.385 22.403 142.385 21.9172V21.8149C142.385 20.5536 142.039 19.5735 141.349 18.8746C140.667 18.1757 139.632 17.8263 138.242 17.8263C136.802 17.8263 135.673 18.1417 134.855 18.7723C134.037 19.403 133.461 20.0763 133.129 20.7922L130.265 19.7695C130.777 18.5763 131.458 17.6473 132.311 16.9826C133.171 16.3093 134.109 15.8405 135.123 15.5763C136.146 15.3036 137.152 15.1672 138.14 15.1672C138.771 15.1672 139.495 15.2439 140.314 15.3973C141.14 15.5422 141.937 15.8448 142.704 16.305C143.48 16.7652 144.123 17.4598 144.635 18.3888C145.146 19.3178 145.402 20.5621 145.402 22.1218V35.0593H142.385V32.4002H142.231C142.027 32.8263 141.686 33.2823 141.208 33.7681C140.731 34.2539 140.096 34.6672 139.304 35.0081C138.511 35.349 137.544 35.5195 136.402 35.5195ZM136.862 32.8093C138.055 32.8093 139.061 32.5749 139.879 32.1061C140.706 31.6374 141.328 31.0323 141.745 30.2908C142.171 29.5493 142.385 28.7695 142.385 27.9513V25.1899C142.257 25.3434 141.975 25.484 141.541 25.6118C141.115 25.7311 140.62 25.8377 140.058 25.9314C139.504 26.0167 138.963 26.0934 138.434 26.1615C137.914 26.2212 137.492 26.2723 137.169 26.3149C136.385 26.4172 135.652 26.5834 134.97 26.8135C134.296 27.0351 133.751 27.3718 133.333 27.8235C132.924 28.2667 132.72 28.8718 132.72 29.6388C132.72 30.6871 133.108 31.4797 133.883 32.0167C134.667 32.5451 135.66 32.8093 136.862 32.8093ZM150.908 35.0593V15.4229H153.823V18.3888H154.028C154.386 17.4172 155.033 16.6289 155.971 16.0238C156.908 15.4186 157.965 15.1161 159.141 15.1161C159.363 15.1161 159.64 15.1203 159.972 15.1289C160.305 15.1374 160.556 15.1502 160.727 15.1672V18.2354C160.624 18.2098 160.39 18.1715 160.023 18.1203C159.665 18.0607 159.286 18.0309 158.886 18.0309C157.931 18.0309 157.079 18.2311 156.329 18.6317C155.587 19.0238 154.999 19.5692 154.565 20.2681C154.138 20.9584 153.925 21.7468 153.925 22.6331V35.0593H150.908ZM174.073 15.4229V17.9797H163.897V15.4229H174.073ZM166.863 10.7184H169.88V29.4343C169.88 30.2865 170.004 30.9257 170.251 31.3519C170.506 31.7695 170.83 32.0507 171.222 32.1956C171.623 32.332 172.045 32.4002 172.488 32.4002C172.82 32.4002 173.093 32.3831 173.306 32.349C173.519 32.3064 173.69 32.2723 173.817 32.2468L174.431 34.957C174.227 35.0337 173.941 35.1104 173.575 35.1871C173.208 35.2723 172.744 35.3149 172.181 35.3149C171.329 35.3149 170.494 35.1317 169.675 34.7652C168.866 34.3988 168.192 33.8405 167.655 33.0905C167.127 32.3405 166.863 31.3945 166.863 30.2524V10.7184Z" fill="#F6F5F1"/>
<path d="M21.5461 8.87745V8.62745C21.4081 8.62745 21.2961 8.73937 21.2961 8.87745H21.5461ZM24.7166 8.87745H24.9666C24.9666 8.73937 24.8546 8.62745 24.7166 8.62745V8.87745ZM23.451 31.0067L23.2366 30.8781L23.2363 30.8785L23.451 31.0067ZM19.9098 34.3178L20.026 34.5391L20.027 34.5386L19.9098 34.3178ZM9.17112 34.3178L9.05392 34.5386L9.05489 34.5391L9.17112 34.3178ZM5.61714 31.0067L5.40219 31.1344L5.40312 31.1359L5.61714 31.0067ZM4.3643 8.87745V8.62745C4.22623 8.62745 4.1143 8.73937 4.1143 8.87745H4.3643ZM7.53476 8.87745H7.78476C7.78476 8.73937 7.67283 8.62745 7.53476 8.62745V8.87745ZM8.37851 29.3703L8.16076 29.4932L8.16122 29.494L8.37851 29.3703ZM10.7819 31.7098L10.6616 31.929L10.6637 31.9301L10.7819 31.7098ZM18.299 31.7098L18.4172 31.9301L18.4185 31.9294L18.299 31.7098ZM20.7024 29.3703L20.4846 29.2475L20.4843 29.2481L20.7024 29.3703ZM21.5461 9.12745H24.7166V8.62745H21.5461V9.12745ZM24.4666 8.87745V26.2127H24.9666V8.87745H24.4666ZM24.4666 26.2127C24.4666 27.9614 24.0549 29.5142 23.2366 30.8781L23.6653 31.1353C24.5345 29.6867 24.9666 28.0435 24.9666 26.2127H24.4666ZM23.2363 30.8785C22.426 32.2346 21.2804 33.3073 19.7926 34.097L20.027 34.5386C21.5903 33.7089 22.8055 32.5743 23.6656 31.1349L23.2363 30.8785ZM19.7935 34.0965C18.3101 34.8755 16.5617 35.2695 14.5404 35.2695V35.7695C16.6272 35.7695 18.4583 35.3624 20.026 34.5391L19.7935 34.0965ZM14.5404 35.2695C12.5192 35.2695 10.7708 34.8755 9.28735 34.0965L9.05489 34.5391C10.6226 35.3624 12.4537 35.7695 14.5404 35.7695V35.2695ZM9.28832 34.097C7.80032 33.3072 6.65016 32.2342 5.83117 30.8775L5.40312 31.1359C6.27162 32.5746 7.49079 33.709 9.05392 34.5386L9.28832 34.097ZM5.83209 30.879C5.02194 29.515 4.6143 27.9619 4.6143 26.2127H4.1143C4.1143 28.043 4.54189 29.6859 5.4022 31.1344L5.83209 30.879ZM4.6143 26.2127V8.87745H4.1143V26.2127H4.6143ZM4.3643 9.12745H7.53476V8.62745H4.3643V9.12745ZM7.28476 8.87745V25.957H7.78476V8.87745H7.28476ZM7.28476 25.957C7.28476 27.2733 7.57473 28.4543 8.16076 29.4932L8.59625 29.2475C8.05728 28.2921 7.78476 27.1975 7.78476 25.957H7.28476ZM8.16122 29.494C8.74759 30.5246 9.5831 31.3367 10.6616 31.929L10.9023 31.4907C9.90119 30.9409 9.13443 30.1934 8.5958 29.2467L8.16122 29.494ZM10.6637 31.9301C11.7557 32.516 13.051 32.8036 14.5404 32.8036V32.3036C13.1151 32.3036 11.9048 32.0286 10.9001 31.4895L10.6637 31.9301ZM14.5404 32.8036C16.0299 32.8036 17.3252 32.516 18.4172 31.9301L18.1808 31.4895C17.1761 32.0286 15.9658 32.3036 14.5404 32.3036V32.8036ZM18.4185 31.9294C19.5059 31.3371 20.3422 30.5245 20.9205 29.4926L20.4843 29.2481C19.9546 30.1935 19.1886 30.9405 18.1794 31.4903L18.4185 31.9294ZM20.9201 29.4932C21.5061 28.4543 21.7961 27.2733 21.7961 25.957H21.2961C21.2961 27.1975 21.0236 28.2921 20.4846 29.2475L20.9201 29.4932ZM21.7961 25.957V8.87745H21.2961V25.957H21.7961ZM44.5479 19.8206L44.616 20.0612C44.6818 20.0426 44.7371 19.9978 44.769 19.9373C44.8009 19.8769 44.8067 19.806 44.7849 19.7411L44.5479 19.8206ZM41.8377 20.5877L41.6038 20.6759C41.6496 20.7974 41.7808 20.8636 41.9057 20.8282L41.8377 20.5877ZM41.0834 19.2709L40.8829 19.4203L40.8863 19.4247L41.0834 19.2709ZM39.7539 18.197L39.8657 17.9734L39.8657 17.9734L39.7539 18.197ZM34.5891 18.6061L34.7308 18.8121L34.7313 18.8118L34.5891 18.6061ZM34.2184 22.4669L34.0625 22.6625L34.0626 22.6625L34.2184 22.4669ZM36.7752 23.5536L36.7145 23.7961L36.7155 23.7964L36.7752 23.5536ZM39.6899 24.2695L39.6303 24.5123L39.631 24.5124L39.6899 24.2695ZM43.6147 26.2255L43.4362 26.4005L43.437 26.4014L43.6147 26.2255ZM43.9343 32.6047L43.7324 32.4572L43.7315 32.4585L43.9343 32.6047ZM32.2624 34.1644L32.4004 33.956L32.4004 33.956L32.2624 34.1644ZM29.7695 30.3547L29.7089 30.1122C29.5786 30.1448 29.4973 30.2745 29.5248 30.4059L29.7695 30.3547ZM32.6331 29.6388L32.8752 29.5763C32.8409 29.4434 32.7057 29.363 32.5725 29.3963L32.6331 29.6388ZM34.18 32.0167L34.0371 32.2218L34.0382 32.2225L34.18 32.0167ZM40.5337 31.9144L40.68 32.1171L40.6804 32.1168L40.5337 31.9144ZM41.0706 28.028L40.8954 28.2064L40.8971 28.208L41.0706 28.028ZM38.8718 26.9797L38.8147 27.2231L38.8151 27.2232L38.8718 26.9797ZM35.599 26.2127L35.5414 26.4559L35.542 26.4561L35.599 26.2127ZM31.636 24.2311L31.4524 24.4009L31.4541 24.4026L31.636 24.2311ZM31.3164 17.903L31.1154 17.7543L31.1144 17.7556L31.3164 17.903ZM33.886 15.8959L33.7843 15.6675L33.7836 15.6678L33.886 15.8959ZM42.1701 16.4456L42.0176 16.6438L42.0184 16.6443L42.1701 16.4456ZM44.4798 19.5801L41.7696 20.3471L41.9057 20.8282L44.616 20.0612L44.4798 19.5801ZM42.0716 20.4994C41.8912 20.0215 41.6266 19.5608 41.2805 19.1172L40.8863 19.4247C41.205 19.8333 41.4432 20.2504 41.6038 20.6759L42.0716 20.4994ZM41.2839 19.1215C40.9332 18.6509 40.4575 18.2694 39.8657 17.9734L39.6421 18.4207C40.1752 18.6872 40.5859 19.0216 40.8829 19.4203L41.2839 19.1215ZM39.8657 17.9734C39.2575 17.6694 38.4956 17.5252 37.5934 17.5252V18.0252C38.4468 18.0252 39.1252 18.1622 39.6421 18.4207L39.8657 17.9734ZM37.5934 17.5252C36.3528 17.5252 35.2987 17.8115 34.4469 18.4005L34.7313 18.8118C35.4817 18.2928 36.4305 18.0252 37.5934 18.0252V17.5252ZM34.4474 18.4002C33.598 18.9847 33.1502 19.7514 33.1502 20.6899H33.6502C33.6502 19.941 33.9949 19.3185 34.7308 18.8121L34.4474 18.4002ZM33.1502 20.6899C33.1502 21.5095 33.4526 22.1764 34.0625 22.6625L34.3742 22.2714C33.8932 21.8882 33.6502 21.3704 33.6502 20.6899H33.1502ZM34.0626 22.6625C34.6492 23.1299 35.5421 23.503 36.7145 23.7961L36.8358 23.311C35.6901 23.0246 34.8784 22.6732 34.3742 22.2714L34.0626 22.6625ZM36.7155 23.7964L39.6303 24.5123L39.7496 24.0267L36.8348 23.3108L36.7155 23.7964ZM39.631 24.5124C41.3613 24.9324 42.62 25.5682 43.4362 26.4005L43.7932 26.0504C42.8877 25.1271 41.53 24.4588 39.7489 24.0265L39.631 24.5124ZM43.437 26.4014C44.2456 27.218 44.6559 28.2727 44.6559 29.5877H45.1559C45.1559 28.1584 44.7053 26.9715 43.7923 26.0496L43.437 26.4014ZM44.6559 29.5877C44.6559 30.6611 44.348 31.6148 43.7324 32.4572L44.1361 32.7522C44.8159 31.8219 45.1559 30.7643 45.1559 29.5877H44.6559ZM43.7315 32.4585C43.1219 33.3038 42.2644 33.9767 41.1481 34.4729L41.3511 34.9298C42.5359 34.4032 43.4682 33.6784 44.137 32.7509L43.7315 32.4585ZM41.1481 34.4729C40.0355 34.9673 38.7332 35.2184 37.2354 35.2184V35.7184C38.7887 35.7184 40.1626 35.458 41.3511 34.9298L41.1481 34.4729ZM37.2354 35.2184C35.2684 35.2184 33.6622 34.7916 32.4004 33.956L32.1243 34.3728C33.4876 35.2758 35.1968 35.7184 37.2354 35.7184V35.2184ZM32.4004 33.956C31.1477 33.1262 30.3514 31.9155 30.0142 30.3035L29.5248 30.4059C29.8864 32.1348 30.7521 33.4639 32.1243 34.3728L32.4004 33.956ZM29.8301 30.5973L32.6938 29.8813L32.5725 29.3963L29.7089 30.1122L29.8301 30.5973ZM32.3911 29.7013C32.6759 30.805 33.2209 31.6532 34.0371 32.2218L34.3229 31.8115C33.622 31.3233 33.1358 30.5863 32.8752 29.5763L32.3911 29.7013ZM34.0382 32.2225C34.8586 32.7877 35.9141 33.0593 37.1843 33.0593V32.5593C35.9828 32.5593 35.0355 32.3024 34.3218 31.8108L34.0382 32.2225ZM37.1843 33.0593C38.6236 33.0593 39.7972 32.7541 40.68 32.1171L40.3874 31.7117C39.6167 32.2678 38.5575 32.5593 37.1843 32.5593V33.0593ZM40.6804 32.1168C41.5643 31.4765 42.0365 30.6831 42.0365 29.7411H41.5365C41.5365 30.4866 41.1736 31.1421 40.387 31.7119L40.6804 32.1168ZM42.0365 29.7411C42.0365 28.9936 41.7718 28.3569 41.2442 27.8481L40.8971 28.208C41.324 28.6196 41.5365 29.125 41.5365 29.7411H42.0365ZM41.2458 27.8497C40.723 27.3362 39.9404 26.9718 38.9284 26.7362L38.8151 27.2232C39.7804 27.4479 40.4637 27.7824 40.8954 28.2064L41.2458 27.8497ZM38.9288 26.7363L35.6561 25.9693L35.542 26.4561L38.8147 27.2231L38.9288 26.7363ZM35.6567 25.9694C33.8835 25.5492 32.6152 24.9053 31.8179 24.0596L31.4541 24.4026C32.3442 25.3468 33.7179 26.0238 35.5414 26.4559L35.6567 25.9694ZM31.8195 24.0614C31.0315 23.2091 30.6331 22.1425 30.6331 20.8434H30.1331C30.1331 22.2545 30.57 23.4464 31.4524 24.4009L31.8195 24.0614ZM30.6331 20.8434C30.6331 19.7856 30.929 18.8577 31.5183 18.0504L31.1144 17.7556C30.4594 18.6529 30.1331 19.6852 30.1331 20.8434H30.6331ZM31.5173 18.0517C32.1196 17.2379 32.9403 16.5944 33.9883 16.124L33.7836 15.6678C32.6668 16.1691 31.7745 16.8636 31.1154 17.7543L31.5173 18.0517ZM33.9877 16.1243C35.0419 15.6548 36.2423 15.4172 37.5934 15.4172V14.9172C36.1831 14.9172 34.9118 15.1654 33.7843 15.6675L33.9877 16.1243ZM37.5934 15.4172C39.5025 15.4172 40.9676 15.8361 42.0176 16.6438L42.3225 16.2475C41.1566 15.3507 39.5706 14.9172 37.5934 14.9172V15.4172ZM42.0184 16.6443C43.0931 17.4647 43.8572 18.5473 44.3109 19.9001L44.7849 19.7411C44.3011 18.2985 43.48 17.1311 42.3217 16.2469L42.0184 16.6443ZM52.784 34.2155L52.6525 34.4281L52.6541 34.4291L52.784 34.2155ZM49.6264 30.6871L49.4013 30.7959L49.402 30.7974L49.6264 30.6871ZM49.6264 20.0763L49.4011 19.968L49.4008 19.9685L49.6264 20.0763ZM52.7201 16.4712L52.8566 16.6807L52.8569 16.6804L52.7201 16.4712ZM60.4034 15.6786L60.4842 15.442L60.4842 15.442L60.4034 15.6786ZM63.1264 17.3405L62.9554 17.5229L62.9564 17.5238L63.1264 17.3405ZM65.0823 20.3576L65.3154 20.2672L65.3154 20.2672L65.0823 20.3576ZM65.811 26.2638V26.5138C65.9491 26.5138 66.061 26.4019 66.061 26.2638H65.811ZM50.6747 26.2638H50.4247C50.4247 26.4019 50.5366 26.5138 50.6747 26.5138V26.2638ZM50.6747 23.6559V23.4059C50.5366 23.4059 50.4247 23.5178 50.4247 23.6559H50.6747ZM62.7429 23.6559V23.9059C62.8809 23.9059 62.9929 23.7939 62.9929 23.6559H62.7429ZM62.0781 20.6899L61.8545 20.8018L61.8554 20.8035L62.0781 20.6899ZM60.2116 18.6317L60.0787 18.8435L60.0797 18.8441L60.2116 18.6317ZM54.2542 18.7723L54.3943 18.9794L54.3947 18.9791L54.2542 18.7723ZM52.2471 21.0735L52.0231 20.9625L52.0231 20.9625L52.2471 21.0735ZM52.311 29.626L52.087 29.7371L52.0882 29.7393L52.311 29.626ZM54.4715 31.9655L54.3456 32.1815L54.3471 32.1823L54.4715 31.9655ZM59.8281 32.4257L59.91 32.662L59.9118 32.6613L59.8281 32.4257ZM61.5028 31.403L61.6763 31.583L61.6779 31.5814L61.5028 31.403ZM62.5894 29.6899L62.657 29.4492C62.532 29.4142 62.4009 29.4806 62.3554 29.6022L62.5894 29.6899ZM65.5042 30.5081L65.743 30.5822C65.763 30.5178 65.7561 30.448 65.7238 30.3887C65.6916 30.3294 65.6368 30.2857 65.5718 30.2674L65.5042 30.5081ZM63.9573 33.1161L64.1362 33.2908L64.1372 33.2898L63.9573 33.1161ZM61.2727 34.8547L61.3623 35.0881L61.3639 35.0875L61.2727 34.8547ZM57.6804 35.2184C55.8259 35.2184 54.2405 34.8094 52.914 34.002L52.6541 34.4291C54.0719 35.2921 55.7507 35.7184 57.6804 35.7184V35.2184ZM52.9156 34.0029C51.5939 33.1851 50.5725 32.0453 49.8507 30.5768L49.402 30.7974C50.1632 32.3459 51.247 33.5584 52.6525 34.4281L52.9156 34.0029ZM49.8515 30.5783C49.1378 29.1012 48.7769 27.3754 48.7769 25.3945H48.2769C48.2769 27.4363 48.6491 29.239 49.4013 30.7959L49.8515 30.5783ZM48.7769 25.3945C48.7769 23.4137 49.1378 21.6789 49.852 20.1841L49.4008 19.9685C48.6491 21.5419 48.2769 23.3526 48.2769 25.3945H48.7769ZM49.8517 20.1846C50.5751 18.6796 51.5771 17.5144 52.8566 16.6807L52.5836 16.2617C51.2211 17.1496 50.1606 18.3878 49.4011 19.968L49.8517 20.1846ZM52.8569 16.6804C54.1412 15.8407 55.6436 15.4172 57.3735 15.4172V14.9172C55.558 14.9172 53.9582 15.363 52.5833 16.262L52.8569 16.6804ZM57.3735 15.4172C58.3679 15.4172 59.3506 15.5829 60.3225 15.9151L60.4842 15.442C59.4618 15.0925 58.4246 14.9172 57.3735 14.9172V15.4172ZM60.3225 15.9151C61.284 16.2439 62.1614 16.7785 62.9554 17.5229L63.2974 17.1581C62.455 16.3684 61.5171 15.7951 60.4842 15.442L60.3225 15.9151ZM62.9564 17.5238C63.7417 18.2518 64.3744 19.2233 64.8493 20.4479L65.3154 20.2672C64.8187 18.9861 64.1475 17.9462 63.2963 17.1572L62.9564 17.5238ZM64.8493 20.4479C65.3206 21.6636 65.561 23.1734 65.561 24.9854H66.061C66.061 23.1326 65.8157 21.5572 65.3154 20.2672L64.8493 20.4479ZM65.561 24.9854V26.2638H66.061V24.9854H65.561ZM65.811 26.0138H50.6747V26.5138H65.811V26.0138ZM50.9247 26.2638V23.6559H50.4247V26.2638H50.9247ZM50.6747 23.9059H62.7429V23.4059H50.6747V23.9059ZM62.9929 23.6559C62.9929 22.5138 62.7642 21.4854 62.3008 20.5764L61.8554 20.8035C62.2783 21.6331 62.4929 22.582 62.4929 23.6559H62.9929ZM62.3017 20.5781C61.8468 19.6683 61.1933 18.9471 60.3435 18.4193L60.0797 18.8441C60.8493 19.322 61.4401 19.9729 61.8545 20.8017L62.3017 20.5781ZM60.3445 18.42C59.4977 17.8885 58.5041 17.6274 57.3735 17.6274V18.1274C58.4248 18.1274 59.3232 18.3693 60.0787 18.8435L60.3445 18.42ZM57.3735 17.6274C56.1286 17.6274 55.0383 17.9372 54.1137 18.5656L54.3947 18.9791C55.2258 18.4143 56.2151 18.1274 57.3735 18.1274V17.6274ZM54.1141 18.5653C53.2088 19.1777 52.5109 19.9779 52.0231 20.9625L52.4711 21.1845C52.9208 20.2769 53.561 19.5431 54.3943 18.9794L54.1141 18.5653ZM52.0231 20.9625C51.5368 21.9439 51.294 22.9962 51.294 24.1161H51.794C51.794 23.0712 52.0199 22.0951 52.4711 21.1845L52.0231 20.9625ZM51.294 24.1161V25.8547H51.794V24.1161H51.294ZM51.294 25.8547C51.294 27.3655 51.5544 28.6628 52.0871 29.7371L52.535 29.515C52.045 28.5267 51.794 27.3099 51.794 25.8547H51.294ZM52.0882 29.7393C52.6281 30.8014 53.3804 31.6185 54.3456 32.1815L54.5975 31.7496C53.7217 31.2387 53.0338 30.4961 52.5339 29.5127L52.0882 29.7393ZM54.3471 32.1823C55.3107 32.7355 56.4245 33.0081 57.6804 33.0081V32.5081C56.4987 32.5081 55.4733 32.2523 54.596 31.7487L54.3471 32.1823ZM57.6804 33.0081C58.4962 33.0081 59.2403 32.8941 59.91 32.662L59.7462 32.1895C59.1374 32.4006 58.4498 32.5081 57.6804 32.5081V33.0081ZM59.9118 32.6613C60.5911 32.42 61.1805 32.0608 61.6763 31.583L61.3293 31.223C60.8876 31.6486 60.3605 31.9713 59.7444 32.1902L59.9118 32.6613ZM61.6779 31.5814C62.1754 31.093 62.5564 30.49 62.8235 29.7777L62.3554 29.6022C62.1111 30.2536 61.7677 30.7926 61.3276 31.2246L61.6779 31.5814ZM62.5219 29.9306L65.4367 30.7488L65.5718 30.2674L62.657 29.4492L62.5219 29.9306ZM65.2655 30.434C64.9703 31.385 64.475 32.2203 63.7775 32.9424L64.1372 33.2898C64.8886 32.5119 65.4245 31.6085 65.743 30.5822L65.2655 30.434ZM63.7785 32.9414C63.0813 33.655 62.2173 34.2159 61.1814 34.622L61.3639 35.0875C62.4588 34.6583 63.3845 34.0601 64.1362 33.2908L63.7785 32.9414ZM61.1831 34.6213C60.1506 35.0178 58.9842 35.2184 57.6804 35.2184V35.7184C59.0356 35.7184 60.2641 35.5098 61.3623 35.0881L61.1831 34.6213ZM94.4346 19.8206L94.5027 20.0612C94.5685 20.0426 94.6238 19.9978 94.6557 19.9373C94.6876 19.8769 94.6934 19.806 94.6716 19.7411L94.4346 19.8206ZM91.7244 20.5877L91.4905 20.6759C91.5363 20.7974 91.6675 20.8636 91.7925 20.8282L91.7244 20.5877ZM90.9701 19.2709L90.7696 19.4203L90.773 19.4247L90.9701 19.2709ZM89.6406 18.197L89.7524 17.9734L89.7524 17.9734L89.6406 18.197ZM84.4758 18.6061L84.6175 18.8121L84.618 18.8118L84.4758 18.6061ZM84.1051 22.4669L83.9493 22.6625L83.9493 22.6625L84.1051 22.4669ZM86.6619 23.5536L86.6013 23.7961L86.6023 23.7964L86.6619 23.5536ZM89.5767 24.2695L89.517 24.5123L89.5177 24.5124L89.5767 24.2695ZM93.5014 26.2255L93.3229 26.4005L93.3237 26.4014L93.5014 26.2255ZM93.821 32.6047L93.6191 32.4572L93.6182 32.4585L93.821 32.6047ZM82.1491 34.1644L82.2872 33.956L82.2872 33.956L82.1491 34.1644ZM79.6562 30.3547L79.5956 30.1122C79.4653 30.1448 79.384 30.2745 79.4115 30.4059L79.6562 30.3547ZM82.5198 29.6388L82.7619 29.5763C82.7276 29.4434 82.5924 29.363 82.4592 29.3963L82.5198 29.6388ZM84.0667 32.0167L83.9238 32.2218L83.9249 32.2225L84.0667 32.0167ZM90.4204 31.9144L90.5667 32.1171L90.5671 32.1168L90.4204 31.9144ZM90.9573 28.028L90.7822 28.2064L90.7838 28.208L90.9573 28.028ZM88.7585 26.9797L88.7014 27.2231L88.7018 27.2232L88.7585 26.9797ZM85.4858 26.2127L85.4281 26.4559L85.4287 26.4561L85.4858 26.2127ZM81.5227 24.2311L81.3391 24.4009L81.3408 24.4026L81.5227 24.2311ZM81.2031 17.903L81.0021 17.7543L81.0012 17.7556L81.2031 17.903ZM83.7727 15.8959L83.671 15.6675L83.6703 15.6678L83.7727 15.8959ZM92.0568 16.4456L91.9043 16.6438L91.9051 16.6443L92.0568 16.4456ZM94.3665 19.5801L91.6563 20.3471L91.7925 20.8282L94.5027 20.0612L94.3665 19.5801ZM91.9583 20.4994C91.778 20.0215 91.5133 19.5608 91.1673 19.1172L90.773 19.4247C91.0917 19.8333 91.3299 20.2504 91.4905 20.6759L91.9583 20.4994ZM91.1706 19.1215C90.8199 18.6509 90.3442 18.2694 89.7524 17.9734L89.5288 18.4207C90.0619 18.6872 90.4726 19.0216 90.7697 19.4203L91.1706 19.1215ZM89.7524 17.9734C89.1442 17.6694 88.3823 17.5252 87.4801 17.5252V18.0252C88.3335 18.0252 89.0119 18.1622 89.5288 18.4207L89.7524 17.9734ZM87.4801 17.5252C86.2396 17.5252 85.1854 17.8115 84.3336 18.4005L84.618 18.8118C85.3685 18.2928 86.3172 18.0252 87.4801 18.0252V17.5252ZM84.3341 18.4002C83.4847 18.9847 83.0369 19.7514 83.0369 20.6899H83.5369C83.5369 19.941 83.8817 19.3185 84.6175 18.8121L84.3341 18.4002ZM83.0369 20.6899C83.0369 21.5095 83.3393 22.1764 83.9493 22.6625L84.2609 22.2714C83.7799 21.8882 83.5369 21.3704 83.5369 20.6899H83.0369ZM83.9493 22.6625C84.5359 23.1299 85.4288 23.503 86.6013 23.7961L86.7225 23.311C85.5768 23.0246 84.7651 22.6732 84.2609 22.2714L83.9493 22.6625ZM86.6023 23.7964L89.517 24.5123L89.6363 24.0267L86.7215 23.3108L86.6023 23.7964ZM89.5177 24.5124C91.248 24.9324 92.5067 25.5682 93.3229 26.4005L93.6799 26.0504C92.7744 25.1271 91.4167 24.4588 89.6356 24.0265L89.5177 24.5124ZM93.3237 26.4014C94.1324 27.218 94.5426 28.2727 94.5426 29.5877H95.0426C95.0426 28.1584 94.592 26.9715 93.679 26.0496L93.3237 26.4014ZM94.5426 29.5877C94.5426 30.6611 94.2347 31.6148 93.6191 32.4572L94.0228 32.7522C94.7027 31.8219 95.0426 30.7643 95.0426 29.5877H94.5426ZM93.6182 32.4585C93.0086 33.3038 92.1512 33.9767 91.0348 34.4729L91.2379 34.9298C92.4226 34.4032 93.3549 33.6784 94.0238 32.7509L93.6182 32.4585ZM91.0348 34.4729C89.9222 34.9673 88.62 35.2184 87.1221 35.2184V35.7184C88.6754 35.7184 90.0493 35.458 91.2379 34.9298L91.0348 34.4729ZM87.1221 35.2184C85.1551 35.2184 83.5489 34.7916 82.2872 33.956L82.0111 34.3728C83.3743 35.2758 85.0835 35.7184 87.1221 35.7184V35.2184ZM82.2872 33.956C81.0344 33.1262 80.2381 31.9155 79.9009 30.3035L79.4115 30.4059C79.7732 32.1348 80.6388 33.4639 82.0111 34.3728L82.2872 33.956ZM79.7168 30.5973L82.5805 29.8813L82.4592 29.3963L79.5956 30.1122L79.7168 30.5973ZM82.2778 29.7013C82.5626 30.805 83.1077 31.6532 83.9238 32.2218L84.2096 31.8115C83.5087 31.3233 83.0225 30.5863 82.7619 29.5763L82.2778 29.7013ZM83.9249 32.2225C84.7453 32.7877 85.8008 33.0593 87.071 33.0593V32.5593C85.8695 32.5593 84.9222 32.3024 84.2085 31.8108L83.9249 32.2225ZM87.071 33.0593C88.5103 33.0593 89.684 32.7541 90.5667 32.1171L90.2741 31.7117C89.5035 32.2678 88.4442 32.5593 87.071 32.5593V33.0593ZM90.5671 32.1168C91.451 31.4765 91.9233 30.6831 91.9233 29.7411H91.4233C91.4233 30.4866 91.0603 31.1421 90.2737 31.7119L90.5671 32.1168ZM91.9233 29.7411C91.9233 28.9936 91.6585 28.3569 91.1309 27.8481L90.7838 28.208C91.2107 28.6196 91.4233 29.125 91.4233 29.7411H91.9233ZM91.1325 27.8497C90.6097 27.3362 89.8271 26.9718 88.8152 26.7362L88.7018 27.2232C89.6671 27.4479 90.3504 27.7824 90.7822 28.2064L91.1325 27.8497ZM88.8155 26.7363L85.5428 25.9693L85.4287 26.4561L88.7014 27.2231L88.8155 26.7363ZM85.5434 25.9694C83.7703 25.5492 82.5019 24.9053 81.7046 24.0596L81.3408 24.4026C82.2309 25.3468 83.6046 26.0238 85.4281 26.4559L85.5434 25.9694ZM81.7063 24.0614C80.9182 23.2091 80.5198 22.1425 80.5198 20.8434H80.0198C80.0198 22.2545 80.4567 23.4464 81.3391 24.4009L81.7063 24.0614ZM80.5198 20.8434C80.5198 19.7856 80.8157 18.8577 81.405 18.0504L81.0012 17.7556C80.3461 18.6529 80.0198 19.6852 80.0198 20.8434H80.5198ZM81.404 18.0517C82.0063 17.2379 82.827 16.5944 83.8751 16.124L83.6703 15.6678C82.5535 16.1691 81.6612 16.8636 81.0021 17.7543L81.404 18.0517ZM83.8744 16.1243C84.9287 15.6548 86.129 15.4172 87.4801 15.4172V14.9172C86.0698 14.9172 84.7985 15.1654 83.671 15.6675L83.8744 16.1243ZM87.4801 15.4172C89.3892 15.4172 90.8543 15.8361 91.9043 16.6438L92.2092 16.2475C91.0433 15.3507 89.4573 14.9172 87.4801 14.9172V15.4172ZM91.9051 16.6443C92.9798 17.4647 93.7439 18.5473 94.1976 19.9001L94.6716 19.7411C94.1878 18.2985 93.3667 17.1311 92.2085 16.2469L91.9051 16.6443ZM99.3341 35.0593H99.0841C99.0841 35.1973 99.196 35.3093 99.3341 35.3093V35.0593ZM99.3341 15.4229V15.1729C99.196 15.1729 99.0841 15.2848 99.0841 15.4229H99.3341ZM102.249 15.4229H102.499C102.499 15.2848 102.387 15.1729 102.249 15.1729V15.4229ZM102.249 18.4911H101.999C101.999 18.6292 102.111 18.7411 102.249 18.7411V18.4911ZM102.505 18.4911V18.7411C102.608 18.7411 102.7 18.6779 102.737 18.582L102.505 18.4911ZM104.486 16.0493L104.62 16.2603L104.622 16.2594L104.486 16.0493ZM111.006 16.0493L110.865 16.2558L110.867 16.2573L111.006 16.0493ZM113.039 18.4911L112.812 18.5962C112.853 18.6845 112.941 18.7411 113.039 18.7411V18.4911ZM113.243 18.4911V18.7411C113.338 18.7411 113.425 18.6872 113.467 18.6021L113.243 18.4911ZM115.506 16.0749L115.634 16.2899L115.635 16.2891L115.506 16.0749ZM123.432 16.8164L123.257 16.9945L123.257 16.9952L123.432 16.8164ZM125.107 35.0593V35.3093C125.245 35.3093 125.357 35.1973 125.357 35.0593H125.107ZM122.09 35.0593H121.84C121.84 35.1973 121.952 35.3093 122.09 35.3093V35.0593ZM120.901 18.8107L120.747 19.0073L120.747 19.0073L120.901 18.8107ZM114.892 19.1303L115.077 19.2993L115.077 19.2984L114.892 19.1303ZM113.755 35.0593V35.3093C113.893 35.3093 114.005 35.1973 114.005 35.0593H113.755ZM110.686 35.0593H110.436C110.436 35.1973 110.548 35.3093 110.686 35.3093V35.0593ZM109.6 18.913L109.427 19.0939L109.428 19.095L109.6 18.913ZM104.601 18.5039L104.471 18.2907L104.469 18.2914L104.601 18.5039ZM102.965 20.2425L102.747 20.1198L102.747 20.1207L102.965 20.2425ZM102.351 35.0593V35.3093C102.489 35.3093 102.601 35.1973 102.601 35.0593H102.351ZM99.5841 35.0593V15.4229H99.0841V35.0593H99.5841ZM99.3341 15.6729H102.249V15.1729H99.3341V15.6729ZM101.999 15.4229V18.4911H102.499V15.4229H101.999ZM102.249 18.7411H102.505V18.2411H102.249V18.7411ZM102.737 18.582C103.128 17.581 103.755 16.8101 104.62 16.2603L104.352 15.8383C103.393 16.4476 102.699 17.3046 102.272 18.4002L102.737 18.582ZM104.622 16.2594C105.486 15.7018 106.533 15.4172 107.772 15.4172V14.9172C106.454 14.9172 105.31 15.2208 104.351 15.8392L104.622 16.2594ZM107.772 15.4172C109.029 15.4172 110.055 15.7023 110.865 16.2557L111.147 15.8429C110.236 15.2202 109.105 14.9172 107.772 14.9172V15.4172ZM110.867 16.2573C111.694 16.8087 112.343 17.5851 112.812 18.5962L113.265 18.386C112.762 17.3005 112.056 16.449 111.145 15.8413L110.867 16.2573ZM113.039 18.7411H113.243V18.2411H113.039V18.7411ZM113.467 18.6021C113.948 17.6326 114.668 16.8627 115.634 16.2899L115.378 15.8599C114.333 16.4802 113.544 17.3211 113.019 18.38L113.467 18.6021ZM115.635 16.2891C116.595 15.7117 117.754 15.4172 119.124 15.4172V14.9172C117.681 14.9172 116.429 15.2279 115.377 15.8607L115.635 16.2891ZM119.124 15.4172C120.823 15.4172 122.193 15.9468 123.257 16.9945L123.608 16.6382C122.438 15.487 120.937 14.9172 119.124 14.9172V15.4172ZM123.257 16.9952C124.307 18.0205 124.857 19.6427 124.857 21.9172H125.357C125.357 19.5724 124.79 17.794 123.607 16.6376L123.257 16.9952ZM124.857 21.9172V35.0593H125.357V21.9172H124.857ZM125.107 34.8093H122.09V35.3093H125.107V34.8093ZM122.34 35.0593V21.9172H121.84V35.0593H122.34ZM122.34 21.9172C122.34 20.4267 121.931 19.3017 121.055 18.614L120.747 19.0073C121.456 19.564 121.84 20.51 121.84 21.9172H122.34ZM121.055 18.614C120.216 17.955 119.227 17.6274 118.101 17.6274V18.1274C119.123 18.1274 120.001 18.4221 120.747 19.0073L121.055 18.614ZM118.101 17.6274C116.667 17.6274 115.524 18.0634 114.707 18.9622L115.077 19.2984C115.778 18.5267 116.774 18.1274 118.101 18.1274V17.6274ZM114.708 18.9613C113.902 19.8402 113.505 20.9516 113.505 22.2752H114.005C114.005 21.059 114.366 20.0737 115.077 19.2993L114.708 18.9613ZM113.505 22.2752V35.0593H114.005V22.2752H113.505ZM113.755 34.8093H110.686V35.3093H113.755V34.8093ZM110.936 35.0593V21.6104H110.436V35.0593H110.936ZM110.936 21.6104C110.936 20.4343 110.552 19.466 109.771 18.7309L109.428 19.095C110.096 19.7236 110.436 20.5536 110.436 21.6104H110.936ZM109.772 18.732C108.995 17.991 107.997 17.6274 106.8 17.6274V18.1274C107.888 18.1274 108.756 18.4542 109.427 19.0939L109.772 18.732ZM106.8 17.6274C105.969 17.6274 105.191 17.8495 104.471 18.2907L104.732 18.7171C105.375 18.323 106.063 18.1274 106.8 18.1274V17.6274ZM104.469 18.2914C103.758 18.7329 103.184 19.3444 102.747 20.1198L103.183 20.3652C103.581 19.6576 104.098 19.1101 104.733 18.7163L104.469 18.2914ZM102.747 20.1207C102.314 20.896 102.101 21.7872 102.101 22.7865H102.601C102.601 21.8598 102.798 21.0549 103.183 20.3643L102.747 20.1207ZM102.101 22.7865V35.0593H102.601V22.7865H102.101ZM102.351 34.8093H99.3341V35.3093H102.351V34.8093ZM133.014 34.8164L132.907 35.0426L132.909 35.0433L133.014 34.8164ZM130.598 32.7581L130.389 32.8959L130.39 32.8968L130.598 32.7581ZM130.367 26.7496L130.579 26.8835L130.579 26.8823L130.367 26.7496ZM134.599 24.1928L134.653 24.437L134.654 24.4366L134.599 24.1928ZM137.322 23.707L137.29 23.459L137.29 23.4591L137.322 23.707ZM140.224 23.3618L140.25 23.6105L140.252 23.6102L140.224 23.3618ZM141.86 22.9399L141.738 22.7219L141.736 22.7232L141.86 22.9399ZM141.349 18.8746L141.17 19.0492L141.171 19.0503L141.349 18.8746ZM134.855 18.7723L135.007 18.9703L135.007 18.9703L134.855 18.7723ZM133.129 20.7922L133.045 21.0277C133.166 21.0711 133.301 21.0147 133.356 20.8975L133.129 20.7922ZM130.265 19.7695L130.035 19.671C130.008 19.7344 130.008 19.8062 130.036 19.8695C130.064 19.9327 130.116 19.9817 130.181 20.0049L130.265 19.7695ZM132.311 16.9826L132.464 17.1797L132.465 17.1795L132.311 16.9826ZM135.123 15.5763L135.186 15.8182L135.188 15.8179L135.123 15.5763ZM140.314 15.3973L140.267 15.6431L140.27 15.6436L140.314 15.3973ZM142.704 16.305L142.576 16.5194L142.577 16.52L142.704 16.305ZM144.635 18.3888L144.416 18.5094L144.416 18.5094L144.635 18.3888ZM145.402 35.0593V35.3093C145.54 35.3093 145.652 35.1973 145.652 35.0593H145.402ZM142.385 35.0593H142.135C142.135 35.1973 142.246 35.3093 142.385 35.3093V35.0593ZM142.385 32.4002H142.635C142.635 32.2621 142.523 32.1502 142.385 32.1502V32.4002ZM142.231 32.4002V32.1502C142.135 32.1502 142.047 32.2053 142.006 32.292L142.231 32.4002ZM141.208 33.7681L141.387 33.9433L141.387 33.9433L141.208 33.7681ZM139.304 35.0081L139.205 34.7785L139.304 35.0081ZM139.879 32.1061L139.756 31.8887L139.755 31.8892L139.879 32.1061ZM141.745 30.2908L141.529 30.1662L141.528 30.1681L141.745 30.2908ZM142.385 25.1899H142.635C142.635 25.0847 142.569 24.9907 142.47 24.9549C142.371 24.919 142.26 24.949 142.192 25.0299L142.385 25.1899ZM141.541 25.6118L141.608 25.8526L141.611 25.8517L141.541 25.6118ZM140.058 25.9314L140.096 26.1785L140.099 26.178L140.058 25.9314ZM138.434 26.1615L138.463 26.4099L138.466 26.4095L138.434 26.1615ZM137.169 26.3149L137.201 26.5628L137.201 26.5628L137.169 26.3149ZM134.97 26.8135L135.048 27.051L135.05 27.0504L134.97 26.8135ZM133.333 27.8235L133.15 27.6538L133.15 27.6539L133.333 27.8235ZM133.883 32.0167L133.741 32.2222L133.743 32.224L133.883 32.0167ZM136.402 35.2695C135.189 35.2695 134.096 35.0413 133.119 34.5894L132.909 35.0433C133.96 35.5289 135.125 35.7695 136.402 35.7695V35.2695ZM133.12 34.5902C132.145 34.1314 131.376 33.4748 130.806 32.6195L130.39 32.8968C131.013 33.8312 131.854 34.5468 132.907 35.0426L133.12 34.5902ZM130.806 32.6204C130.241 31.7648 129.953 30.7239 129.953 29.4854H129.453C129.453 30.8038 129.761 31.9447 130.389 32.8959L130.806 32.6204ZM129.953 29.4854C129.953 28.3913 130.168 27.5303 130.579 26.8835L130.156 26.6157C129.68 27.3666 129.453 28.3295 129.453 29.4854H129.953ZM130.579 26.8823C130.999 26.2119 131.559 25.6879 132.263 25.3076L132.026 24.8677C131.247 25.2886 130.622 25.8725 130.156 26.6169L130.579 26.8823ZM132.263 25.3076C132.983 24.9191 133.778 24.6285 134.653 24.437L134.546 23.9486C133.63 24.1492 132.789 24.4551 132.026 24.8677L132.263 25.3076ZM134.654 24.4366C135.55 24.2338 136.45 24.0732 137.354 23.9549L137.29 23.4591C136.37 23.5794 135.455 23.7427 134.544 23.949L134.654 24.4366ZM137.354 23.955C138.546 23.8017 139.511 23.6869 140.25 23.6105L140.198 23.1131C139.454 23.1902 138.484 23.3055 137.29 23.459L137.354 23.955ZM140.252 23.6102C141.011 23.524 141.598 23.379 141.985 23.1567L141.736 22.7232C141.441 22.8929 140.937 23.0292 140.196 23.1134L140.252 23.6102ZM141.983 23.158C142.429 22.9076 142.635 22.4707 142.635 21.9172H142.135C142.135 22.3353 141.991 22.5802 141.738 22.7219L141.983 23.158ZM142.635 21.9172V21.8149H142.135V21.9172H142.635ZM142.635 21.8149C142.635 20.5073 142.276 19.4568 141.527 18.6989L141.171 19.0503C141.803 19.6901 142.135 20.5998 142.135 21.8149H142.635ZM141.528 18.7C140.782 17.9356 139.67 17.5763 138.242 17.5763V18.0763C139.593 18.0763 140.552 18.4159 141.17 19.0492L141.528 18.7ZM138.242 17.5763C136.768 17.5763 135.578 17.8989 134.702 18.5743L135.007 18.9703C135.767 18.3844 136.836 18.0763 138.242 18.0763V17.5763ZM134.702 18.5743C133.862 19.2222 133.256 19.9251 132.902 20.6869L133.356 20.8975C133.667 20.2275 134.211 19.5838 135.007 18.9703L134.702 18.5743ZM133.213 20.5568L130.349 19.5341L130.181 20.0049L133.045 21.0277L133.213 20.5568ZM130.495 19.868C130.993 18.7058 131.652 17.8138 132.464 17.1797L132.157 16.7854C131.265 17.4809 130.56 18.4468 130.035 19.671L130.495 19.868ZM132.465 17.1795C133.3 16.5263 134.207 16.0735 135.186 15.8182L135.06 15.3344C134.011 15.6076 133.043 16.0922 132.157 16.7856L132.465 17.1795ZM135.188 15.8179C136.191 15.5504 137.175 15.4172 138.14 15.4172V14.9172C137.128 14.9172 136.101 15.0568 135.059 15.3348L135.188 15.8179ZM138.14 15.4172C138.751 15.4172 139.46 15.4916 140.267 15.6431L140.36 15.1516C139.531 14.9962 138.79 14.9172 138.14 14.9172V15.4172ZM140.27 15.6436C141.065 15.7828 141.833 16.0739 142.576 16.5194L142.833 16.0906C142.041 15.6157 141.216 15.3016 140.357 15.1511L140.27 15.6436ZM142.577 16.52C143.308 16.9537 143.922 17.6125 144.416 18.5094L144.854 18.2683C144.325 17.3071 143.652 16.5767 142.832 16.09L142.577 16.52ZM144.416 18.5094C144.899 19.3881 145.152 20.5858 145.152 22.1218H145.652C145.652 20.5384 145.393 19.2475 144.854 18.2683L144.416 18.5094ZM145.152 22.1218V35.0593H145.652V22.1218H145.152ZM145.402 34.8093H142.385V35.3093H145.402V34.8093ZM142.635 35.0593V32.4002H142.135V35.0593H142.635ZM142.385 32.1502H142.231V32.6502H142.385V32.1502ZM142.006 32.292C141.817 32.685 141.496 33.1188 141.03 33.5929L141.387 33.9433C141.876 33.4458 142.236 32.9676 142.457 32.5084L142.006 32.292ZM141.03 33.5929C140.581 34.0502 139.975 34.4471 139.205 34.7785L139.402 35.2378C140.217 34.8873 140.882 34.4575 141.387 33.9433L141.03 33.5929ZM139.205 34.7785C138.452 35.1024 137.52 35.2695 136.402 35.2695V35.7695C137.567 35.7695 138.57 35.5957 139.402 35.2378L139.205 34.7785ZM136.862 33.0593C138.087 33.0593 139.138 32.8185 140.003 32.3231L139.755 31.8892C138.983 32.3313 138.023 32.5593 136.862 32.5593V33.0593ZM140.002 32.3236C140.864 31.8351 141.521 31.1991 141.963 30.4135L141.528 30.1681C141.135 30.8655 140.547 31.4396 139.756 31.8887L140.002 32.3236ZM141.962 30.4154C142.409 29.6378 142.635 28.8152 142.635 27.9513H142.135C142.135 28.7238 141.934 29.4609 141.529 30.1662L141.962 30.4154ZM142.635 27.9513V25.1899H142.135V27.9513H142.635ZM142.192 25.0299C142.16 25.0693 142.091 25.1241 141.966 25.1869C141.843 25.2484 141.679 25.3106 141.47 25.372L141.611 25.8517C141.837 25.7852 142.031 25.7132 142.19 25.6341C142.345 25.5562 142.482 25.464 142.577 25.35L142.192 25.0299ZM141.473 25.3711C141.058 25.4874 140.573 25.5922 140.017 25.6848L140.099 26.178C140.668 26.0832 141.171 25.9749 141.608 25.8526L141.473 25.3711ZM140.02 25.6843C139.468 25.7693 138.929 25.8457 138.402 25.9136L138.466 26.4095C138.997 26.341 139.54 26.264 140.096 26.1785L140.02 25.6843ZM138.406 25.9132C137.885 25.9729 137.462 26.0242 137.136 26.0671L137.201 26.5628C137.523 26.5205 137.944 26.4695 138.463 26.4099L138.406 25.9132ZM137.136 26.067C136.338 26.1712 135.589 26.3408 134.89 26.5767L135.05 27.0504C135.715 26.826 136.431 26.6632 137.201 26.5628L137.136 26.067ZM134.892 26.5761C134.184 26.8089 133.6 27.1664 133.15 27.6538L133.517 27.9932C133.902 27.5771 134.409 27.2614 135.048 27.051L134.892 26.5761ZM133.15 27.6539C132.687 28.1548 132.47 28.8266 132.47 29.6388H132.97C132.97 28.9169 133.161 28.3785 133.517 27.993L133.15 27.6539ZM132.47 29.6388C132.47 30.7585 132.889 31.6328 133.741 32.2222L134.025 31.8111C133.326 31.3266 132.97 30.6157 132.97 29.6388H132.47ZM133.743 32.224C134.579 32.7869 135.624 33.0593 136.862 33.0593V32.5593C135.696 32.5593 134.756 32.3033 134.023 31.8093L133.743 32.224ZM150.908 35.0593H150.658C150.658 35.1973 150.77 35.3093 150.908 35.3093V35.0593ZM150.908 15.4229V15.1729C150.77 15.1729 150.658 15.2848 150.658 15.4229H150.908ZM153.823 15.4229H154.073C154.073 15.2848 153.961 15.1729 153.823 15.1729V15.4229ZM153.823 18.3888H153.573C153.573 18.5269 153.685 18.6388 153.823 18.6388V18.3888ZM154.028 18.3888V18.6388C154.132 18.6388 154.226 18.5735 154.262 18.4752L154.028 18.3888ZM155.971 16.0238L155.835 15.8137L155.835 15.8137L155.971 16.0238ZM160.727 15.1672H160.977C160.977 15.0388 160.879 14.9312 160.751 14.9185L160.727 15.1672ZM160.727 18.2354L160.666 18.4779C160.741 18.4966 160.82 18.4798 160.88 18.4325C160.941 18.3851 160.977 18.3124 160.977 18.2354H160.727ZM160.023 18.1203L159.982 18.367L159.989 18.3679L160.023 18.1203ZM156.329 18.6317L156.446 18.8527L156.447 18.8522L156.329 18.6317ZM154.565 20.2681L154.352 20.136L154.352 20.1368L154.565 20.2681ZM153.925 35.0593V35.3093C154.063 35.3093 154.175 35.1973 154.175 35.0593H153.925ZM151.158 35.0593V15.4229H150.658V35.0593H151.158ZM150.908 15.6729H153.823V15.1729H150.908V15.6729ZM153.573 15.4229V18.3888H154.073V15.4229H153.573ZM153.823 18.6388H154.028V18.1388H153.823V18.6388ZM154.262 18.4752C154.6 17.5585 155.211 16.8119 156.106 16.2338L155.835 15.8137C154.856 16.4458 154.171 17.2759 153.793 18.3024L154.262 18.4752ZM156.106 16.2338C157.001 15.6562 158.011 15.3661 159.141 15.3661V14.8661C157.92 14.8661 156.815 15.1811 155.835 15.8137L156.106 16.2338ZM159.141 15.3661C159.36 15.3661 159.635 15.3703 159.966 15.3788L159.979 14.8789C159.645 14.8704 159.366 14.8661 159.141 14.8661V15.3661ZM159.966 15.3788C160.297 15.3873 160.541 15.3999 160.702 15.416L160.751 14.9185C160.571 14.9005 160.313 14.8875 159.979 14.8789L159.966 15.3788ZM160.477 15.1672V18.2354H160.977V15.1672H160.477ZM160.787 17.9929C160.669 17.9634 160.421 17.9234 160.058 17.8727L159.989 18.3679C160.359 18.4196 160.579 18.4562 160.666 18.4779L160.787 17.9929ZM160.064 17.8737C159.692 17.8116 159.299 17.7809 158.886 17.7809V18.2809C159.274 18.2809 159.639 18.3098 159.982 18.3669L160.064 17.8737ZM158.886 17.7809C157.895 17.7809 157.002 17.989 156.211 18.4112L156.447 18.8522C157.156 18.4733 157.967 18.2809 158.886 18.2809V17.7809ZM156.212 18.4107C155.432 18.823 154.811 19.3988 154.352 20.136L154.777 20.4001C155.188 19.7396 155.743 19.2245 156.446 18.8527L156.212 18.4107ZM154.352 20.1368C153.899 20.8702 153.675 21.7048 153.675 22.6331H154.175C154.175 21.7887 154.378 21.0466 154.777 20.3994L154.352 20.1368ZM153.675 22.6331V35.0593H154.175V22.6331H153.675ZM153.925 34.8093H150.908V35.3093H153.925V34.8093ZM174.073 15.4229H174.323C174.323 15.2848 174.211 15.1729 174.073 15.1729V15.4229ZM174.073 17.9797V18.2297C174.211 18.2297 174.323 18.1178 174.323 17.9797H174.073ZM163.897 17.9797H163.647C163.647 18.1178 163.759 18.2297 163.897 18.2297V17.9797ZM163.897 15.4229V15.1729C163.759 15.1729 163.647 15.2848 163.647 15.4229H163.897ZM166.863 10.7184V10.4684C166.725 10.4684 166.613 10.5803 166.613 10.7184H166.863ZM169.88 10.7184H170.13C170.13 10.5803 170.018 10.4684 169.88 10.4684V10.7184ZM170.251 31.3519L170.034 31.4773L170.037 31.4824L170.251 31.3519ZM171.222 32.1956L171.136 32.4302L171.142 32.4323L171.222 32.1956ZM173.306 32.349L173.346 32.5961L173.355 32.5942L173.306 32.349ZM173.817 32.2468L174.061 32.1916C174.031 32.0593 173.901 31.975 173.768 32.0016L173.817 32.2468ZM174.431 34.957L174.519 35.1911C174.636 35.1472 174.702 35.0237 174.675 34.9018L174.431 34.957ZM173.575 35.1871L173.523 34.9423L173.518 34.9436L173.575 35.1871ZM169.675 34.7652L169.572 34.993L169.573 34.9934L169.675 34.7652ZM167.655 33.0905L167.451 33.2345L167.452 33.236L167.655 33.0905ZM173.823 15.4229V17.9797H174.323V15.4229H173.823ZM174.073 17.7297H163.897V18.2297H174.073V17.7297ZM164.147 17.9797V15.4229H163.647V17.9797H164.147ZM163.897 15.6729H174.073V15.1729H163.897V15.6729ZM166.863 10.9684H169.88V10.4684H166.863V10.9684ZM169.63 10.7184V29.4343H170.13V10.7184H169.63ZM169.63 29.4343C169.63 30.3025 169.754 30.9945 170.034 31.4773L170.467 31.2264C170.253 30.857 170.13 30.2706 170.13 29.4343H169.63ZM170.037 31.4824C170.317 31.9393 170.682 32.2626 171.136 32.4301L171.309 31.9611C170.978 31.8389 170.695 31.5996 170.464 31.2213L170.037 31.4824ZM171.142 32.4323C171.569 32.5779 172.019 32.6502 172.488 32.6502V32.1502C172.071 32.1502 171.676 32.0861 171.303 31.959L171.142 32.4323ZM172.488 32.6502C172.827 32.6502 173.114 32.6329 173.346 32.5959L173.267 32.1022C173.072 32.1334 172.813 32.1502 172.488 32.1502V32.6502ZM173.355 32.5942C173.568 32.5516 173.739 32.5175 173.866 32.4919L173.768 32.0016C173.641 32.0272 173.47 32.0613 173.257 32.1039L173.355 32.5942ZM173.574 32.302L174.187 35.0122L174.675 34.9018L174.061 32.1916L173.574 32.302ZM174.343 34.7229C174.156 34.7931 173.885 34.8668 173.523 34.9424L173.626 35.4318C173.997 35.3541 174.297 35.2743 174.519 35.1911L174.343 34.7229ZM173.518 34.9436C173.177 35.023 172.733 35.0649 172.181 35.0649V35.5649C172.754 35.5649 173.239 35.5217 173.631 35.4306L173.518 34.9436ZM172.181 35.0649C171.366 35.0649 170.565 34.8899 169.778 34.5371L169.573 34.9934C170.422 35.3735 171.292 35.5649 172.181 35.5649V35.0649ZM169.778 34.5375C169.01 34.1898 168.371 33.6607 167.859 32.945L167.452 33.236C168.014 34.0204 168.721 34.6077 169.572 34.993L169.778 34.5375ZM167.86 32.9465C167.368 32.248 167.113 31.3557 167.113 30.2524H166.613C166.613 31.4333 166.886 32.433 167.451 33.2345L167.86 32.9465ZM167.113 30.2524V10.7184H166.613V30.2524H167.113Z" fill="#1B1B1B"/>
<path d="M17.7164 43.6376L15.0061 44.4047C14.8357 43.953 14.5843 43.5141 14.2519 43.0879C13.928 42.6533 13.4848 42.2953 12.9223 42.0141C12.3598 41.7328 11.6396 41.5922 10.7618 41.5922C9.5601 41.5922 8.55868 41.8692 7.75755 42.4232C6.96493 42.9686 6.56863 43.6632 6.56863 44.507C6.56863 45.257 6.84135 45.8493 7.38681 46.284C7.93226 46.7186 8.78453 47.0808 9.94363 47.3706L12.8584 48.0865C14.6141 48.5126 15.9223 49.1646 16.7831 50.0425C17.6439 50.9118 18.0743 52.0325 18.0743 53.4047C18.0743 54.5297 17.7504 55.5354 17.1027 56.4217C16.4635 57.3081 15.5686 58.007 14.4181 58.5183C13.2675 59.0297 11.9294 59.2854 10.4039 59.2854C8.40101 59.2854 6.74334 58.8507 5.43084 57.9814C4.11834 57.1121 3.28738 55.8422 2.93794 54.1717L5.80158 53.4558C6.07431 54.5126 6.58993 55.3053 7.34846 55.8337C8.1155 56.3621 9.11692 56.6263 10.3527 56.6263C11.759 56.6263 12.8754 56.328 13.7021 55.7314C14.5374 55.1263 14.955 54.4018 14.955 53.5581C14.955 52.8763 14.7164 52.3053 14.2391 51.845C13.7618 51.3763 13.0289 51.0268 12.0402 50.7967L8.76749 50.0297C6.96919 49.6036 5.64817 48.943 4.80442 48.0482C3.96919 47.1447 3.55158 46.0155 3.55158 44.6604C3.55158 43.5524 3.86266 42.5723 4.48482 41.72C5.1155 40.8678 5.97204 40.1987 7.05442 39.7129C8.14533 39.2271 9.38113 38.9842 10.7618 38.9842C12.705 38.9842 14.2306 39.4104 15.3385 40.2626C16.455 41.1149 17.2476 42.2399 17.7164 43.6376ZM22.6159 58.8763V39.2399H25.6329V58.8763H22.6159ZM24.1499 35.9672C23.5619 35.9672 23.0548 35.7669 22.6286 35.3663C22.211 34.9658 22.0022 34.4842 22.0022 33.9217C22.0022 33.3592 22.211 32.8777 22.6286 32.4771C23.0548 32.0766 23.5619 31.8763 24.1499 31.8763C24.738 31.8763 25.2409 32.0766 25.6585 32.4771C26.0846 32.8777 26.2977 33.3592 26.2977 33.9217C26.2977 34.4842 26.0846 34.9658 25.6585 35.3663C25.2409 35.7669 24.738 35.9672 24.1499 35.9672ZM30.5963 58.8763V56.5751L41.7441 42.257V42.0524H30.9543V39.2399H45.6304V41.6433L34.7895 55.8592V56.0638H45.9884V58.8763H30.5963ZM58.3058 59.2854C56.4138 59.2854 54.7817 58.8678 53.4095 58.0325C52.0459 57.1888 50.9933 56.0126 50.2519 54.5041C49.5189 52.9871 49.1524 51.2229 49.1524 49.2115C49.1524 47.2001 49.5189 45.4274 50.2519 43.8933C50.9933 42.3507 52.0246 41.149 53.3456 40.2882C54.6752 39.4189 56.2263 38.9842 57.999 38.9842C59.0218 38.9842 60.0317 39.1547 61.0289 39.4956C62.026 39.8365 62.9337 40.3905 63.7519 41.1575C64.57 41.9161 65.222 42.9217 65.7078 44.1746C66.1936 45.4274 66.4365 46.97 66.4365 48.8024V50.0808H51.3002V47.4729H63.3683C63.3683 46.3649 63.1468 45.3763 62.7036 44.507C62.2689 43.6376 61.6468 42.9516 60.8371 42.4487C60.036 41.9459 59.0899 41.6945 57.999 41.6945C56.7973 41.6945 55.7575 41.9928 54.8797 42.5893C54.0104 43.1774 53.3414 43.9445 52.8726 44.8905C52.4039 45.8365 52.1695 46.8507 52.1695 47.9331V49.6717C52.1695 51.1547 52.4252 52.4118 52.9365 53.443C53.4564 54.4658 54.1766 55.2456 55.097 55.7825C56.0175 56.3109 57.0871 56.5751 58.3058 56.5751C59.0985 56.5751 59.8144 56.4643 60.4536 56.2428C61.1013 56.0126 61.6595 55.6717 62.1283 55.22C62.597 54.7598 62.9593 54.1888 63.2149 53.507L66.1297 54.3251C65.8229 55.3138 65.3073 56.1831 64.5828 56.9331C63.8584 57.6746 62.9635 58.2541 61.8982 58.6717C60.8328 59.0808 59.6354 59.2854 58.3058 59.2854ZM89.8953 39.2399V41.7967H79.3101V39.2399H89.8953ZM82.4806 58.8763V36.5297C82.4806 35.4047 82.7448 34.4672 83.2732 33.7172C83.8016 32.9672 84.4877 32.4047 85.3314 32.0297C86.1752 31.6547 87.0658 31.4672 88.0033 31.4672C88.7448 31.4672 89.3499 31.5268 89.8186 31.6462C90.2874 31.7655 90.6368 31.8763 90.8669 31.9786L89.9976 34.5865C89.8442 34.5354 89.6311 34.4715 89.3584 34.3947C89.0942 34.318 88.7448 34.2797 88.3101 34.2797C87.3129 34.2797 86.5928 34.5311 86.1496 35.034C85.7149 35.5368 85.4976 36.274 85.4976 37.2456V58.8763H82.4806ZM101.548 59.2854C99.656 59.2854 98.0239 58.8678 96.6517 58.0325C95.2881 57.1888 94.2355 56.0126 93.4941 54.5041C92.7611 52.9871 92.3946 51.2229 92.3946 49.2115C92.3946 47.2001 92.7611 45.4274 93.4941 43.8933C94.2355 42.3507 95.2668 41.149 96.5878 40.2882C97.9173 39.4189 99.4685 38.9842 101.241 38.9842C102.264 38.9842 103.274 39.1547 104.271 39.4956C105.268 39.8365 106.176 40.3905 106.994 41.1575C107.812 41.9161 108.464 42.9217 108.95 44.1746C109.436 45.4274 109.679 46.97 109.679 48.8024V50.0808H94.5423V47.4729H106.611C106.611 46.3649 106.389 45.3763 105.946 44.507C105.511 43.6376 104.889 42.9516 104.079 42.4487C103.278 41.9459 102.332 41.6945 101.241 41.6945C100.04 41.6945 98.9997 41.9928 98.1219 42.5893C97.2526 43.1774 96.5835 43.9445 96.1148 44.8905C95.646 45.8365 95.4117 46.8507 95.4117 47.9331V49.6717C95.4117 51.1547 95.6673 52.4118 96.1787 53.443C96.6986 54.4658 97.4188 55.2456 98.3392 55.7825C99.2597 56.3109 100.329 56.5751 101.548 56.5751C102.341 56.5751 103.057 56.4643 103.696 56.2428C104.343 56.0126 104.902 55.6717 105.37 55.22C105.839 54.7598 106.201 54.1888 106.457 53.507L109.372 54.3251C109.065 55.3138 108.549 56.1831 107.825 56.9331C107.101 57.6746 106.206 58.2541 105.14 58.6717C104.075 59.0808 102.878 59.2854 101.548 59.2854ZM120.047 59.3365C118.802 59.3365 117.673 59.1021 116.659 58.6334C115.645 58.1561 114.839 57.47 114.243 56.5751C113.646 55.6717 113.348 54.5808 113.348 53.3024C113.348 52.1774 113.569 51.2655 114.013 50.5666C114.456 49.8592 115.048 49.3053 115.79 48.9047C116.531 48.5041 117.349 48.2058 118.244 48.0098C119.147 47.8053 120.055 47.6433 120.967 47.524C122.16 47.3706 123.128 47.2555 123.869 47.1788C124.619 47.0936 125.165 46.953 125.505 46.757C125.855 46.5609 126.03 46.22 126.03 45.7342V45.632C126.03 44.3706 125.684 43.3905 124.994 42.6916C124.312 41.9928 123.277 41.6433 121.888 41.6433C120.447 41.6433 119.318 41.9587 118.5 42.5893C117.682 43.22 117.106 43.8933 116.774 44.6092L113.91 43.5865C114.422 42.3933 115.103 41.4643 115.956 40.7996C116.816 40.1263 117.754 39.6575 118.768 39.3933C119.791 39.1206 120.797 38.9842 121.785 38.9842C122.416 38.9842 123.14 39.0609 123.959 39.2143C124.785 39.3592 125.582 39.6618 126.349 40.122C127.125 40.5822 127.768 41.2768 128.28 42.2058C128.791 43.1348 129.047 44.3791 129.047 45.9388V58.8763H126.03V56.2172H125.876C125.672 56.6433 125.331 57.0993 124.853 57.5851C124.376 58.0709 123.741 58.4842 122.949 58.8251C122.156 59.1661 121.189 59.3365 120.047 59.3365ZM120.507 56.6263C121.7 56.6263 122.706 56.3919 123.524 55.9232C124.351 55.4544 124.973 54.8493 125.39 54.1078C125.816 53.3663 126.03 52.5865 126.03 51.7683V49.007C125.902 49.1604 125.62 49.301 125.186 49.4288C124.76 49.5482 124.265 49.6547 123.703 49.7484C123.149 49.8337 122.608 49.9104 122.079 49.9786C121.559 50.0382 121.138 50.0893 120.814 50.132C120.03 50.2342 119.297 50.4004 118.615 50.6305C117.941 50.8521 117.396 51.1888 116.978 51.6405C116.569 52.0837 116.365 52.6888 116.365 53.4558C116.365 54.5041 116.753 55.2967 117.528 55.8337C118.312 56.3621 119.305 56.6263 120.507 56.6263ZM143.093 39.2399V41.7967H132.917V39.2399H143.093ZM135.883 34.5354H138.9V53.2513C138.9 54.1036 139.024 54.7428 139.271 55.1689C139.526 55.5865 139.85 55.8678 140.242 56.0126C140.643 56.149 141.065 56.2172 141.508 56.2172C141.84 56.2172 142.113 56.2001 142.326 56.1661C142.539 56.1234 142.71 56.0893 142.837 56.0638L143.451 58.774C143.247 58.8507 142.961 58.9274 142.595 59.0041C142.228 59.0893 141.764 59.132 141.201 59.132C140.349 59.132 139.514 58.9487 138.695 58.5822C137.886 58.2158 137.212 57.6575 136.676 56.9075C136.147 56.1575 135.883 55.2115 135.883 54.0695V34.5354ZM160.006 50.8479V39.2399H163.024V58.8763H160.006V55.5524H159.802C159.342 56.5496 158.626 57.3976 157.654 58.0965C156.683 58.7868 155.455 59.132 153.972 59.132C152.745 59.132 151.654 58.8635 150.7 58.3266C149.745 57.7811 148.995 56.9629 148.45 55.872C147.904 54.7726 147.631 53.3876 147.631 51.7172V39.2399H150.649V51.5126C150.649 52.9445 151.049 54.0865 151.85 54.9388C152.66 55.7911 153.691 56.2172 154.944 56.2172C155.694 56.2172 156.457 56.0254 157.232 55.6419C158.016 55.2584 158.673 54.6703 159.201 53.8777C159.738 53.0851 160.006 52.0751 160.006 50.8479ZM168.549 58.8763V39.2399H171.464V42.2058H171.669C172.027 41.2342 172.674 40.4459 173.612 39.8408C174.549 39.2357 175.606 38.9331 176.782 38.9331C177.004 38.9331 177.281 38.9374 177.613 38.9459C177.946 38.9544 178.197 38.9672 178.368 38.9842V42.0524C178.265 42.0268 178.031 41.9885 177.665 41.9374C177.307 41.8777 176.927 41.8479 176.527 41.8479C175.572 41.8479 174.72 42.0482 173.97 42.4487C173.228 42.8408 172.64 43.3862 172.206 44.0851C171.78 44.7754 171.566 45.5638 171.566 46.4501V58.8763H168.549ZM189.579 59.2854C187.687 59.2854 186.055 58.8678 184.683 58.0325C183.319 57.1888 182.267 56.0126 181.525 54.5041C180.792 52.9871 180.426 51.2229 180.426 49.2115C180.426 47.2001 180.792 45.4274 181.525 43.8933C182.267 42.3507 183.298 41.149 184.619 40.2882C185.949 39.4189 187.5 38.9842 189.272 38.9842C190.295 38.9842 191.305 39.1547 192.302 39.4956C193.299 39.8365 194.207 40.3905 195.025 41.1575C195.843 41.9161 196.495 42.9217 196.981 44.1746C197.467 45.4274 197.71 46.97 197.71 48.8024V50.0808H182.574V47.4729H194.642C194.642 46.3649 194.42 45.3763 193.977 44.507C193.542 43.6376 192.92 42.9516 192.111 42.4487C191.309 41.9459 190.363 41.6945 189.272 41.6945C188.071 41.6945 187.031 41.9928 186.153 42.5893C185.284 43.1774 184.615 43.9445 184.146 44.8905C183.677 45.8365 183.443 46.8507 183.443 47.9331V49.6717C183.443 51.1547 183.699 52.4118 184.21 53.443C184.73 54.4658 185.45 55.2456 186.37 55.7825C187.291 56.3109 188.361 56.5751 189.579 56.5751C190.372 56.5751 191.088 56.4643 191.727 56.2428C192.375 56.0126 192.933 55.6717 193.402 55.22C193.87 54.7598 194.233 54.1888 194.488 53.507L197.403 54.3251C197.096 55.3138 196.581 56.1831 195.856 56.9331C195.132 57.6746 194.237 58.2541 193.172 58.6717C192.106 59.0808 190.909 59.2854 189.579 59.2854Z" fill="#E50014"/>
</svg>
