<svg width="23" height="24" viewBox="0 0 23 24" fill="none" xmlns="http://www.w3.org/2000/svg">
<path id="home" d="M22.1995 10.34C22.199 10.3395 22.1984 10.339 22.1979 10.3384L12.9887 1.12955C12.5962 0.736843 12.0743 0.520508 11.5192 0.520508C10.964 0.520508 10.4421 0.73667 10.0494 1.12938L0.845036 10.3336C0.841936 10.3367 0.838835 10.34 0.835735 10.3431C0.0296439 11.1538 0.031024 12.4692 0.839697 13.2779C1.20915 13.6475 1.69711 13.8616 2.21883 13.884C2.24002 13.8861 2.26137 13.8871 2.2829 13.8871H2.64995V20.6643C2.64995 22.0053 3.7411 23.0965 5.08251 23.0965H8.68545C9.0506 23.0965 9.34686 22.8004 9.34686 22.4351V17.1218C9.34686 16.5098 9.84464 16.012 10.4566 16.012H12.5817C13.1937 16.012 13.6915 16.5098 13.6915 17.1218V22.4351C13.6915 22.8004 13.9876 23.0965 14.3529 23.0965H17.9558C19.2972 23.0965 20.3884 22.0053 20.3884 20.6643V13.8871H20.7287C21.2837 13.8871 21.8056 13.6709 22.1985 13.2782C23.008 12.4682 23.0083 11.1506 22.1995 10.34Z" fill="#E50014"/>
</svg>
