<svg width="18" height="24" viewBox="0 0 18 24" fill="none" xmlns="http://www.w3.org/2000/svg">
<g id="shopping-bag-svgrepo-com (1)">
<path id="Path 5602" d="M13.5354 6.09301V5.33186C13.5354 2.67939 11.3765 0.520508 8.72401 0.520508C6.07154 0.520508 3.91266 2.67939 3.91266 5.33186V6.09301H0.416016V20.0612C0.416016 21.7357 1.77684 23.0965 3.45135 23.0965H13.9967C15.6712 23.0965 17.032 21.7357 17.032 20.0612V6.09301H13.5354ZM5.0982 9.63579C4.53541 9.63579 4.07874 9.1791 4.07874 8.61632C4.07874 8.05353 4.53541 7.59684 5.0982 7.59684C5.66099 7.59684 6.11767 8.05353 6.11767 8.61632C6.11767 9.18371 5.66099 9.63579 5.0982 9.63579ZM11.3165 6.09301H6.13151V5.33186C6.13151 3.90183 7.29398 2.73936 8.72401 2.73936C10.154 2.73936 11.3165 3.90183 11.3165 5.33186V6.09301ZM12.3498 9.63579C11.787 9.63579 11.3304 9.1791 11.3304 8.61632C11.3304 8.05353 11.787 7.59684 12.3498 7.59684C12.9126 7.59684 13.3693 8.05353 13.3693 8.61632C13.3647 9.18371 12.9126 9.63579 12.3498 9.63579Z" fill="#B8B8B8"/>
</g>
</svg>
